<mxfile host="Electron" agent="Mozilla/5.0 (X11; Linux x86_64) AppleWebKit/537.36 (KHTML, like Gecko) draw.io/26.2.15 Chrome/134.0.6998.205 Electron/35.2.1 Safari/537.36" version="26.2.15">
  <diagram name="Diagrama de Estados - Cita" id="estado-cita">
    <mxGraphModel dx="1388" dy="743" grid="1" gridSize="10" guides="1" tooltips="1" connect="1" arrows="1" fold="1" page="1" pageScale="1" pageWidth="827" pageHeight="1169" math="0" shadow="0">
      <root>
        <mxCell id="0" />
        <mxCell id="1" parent="0" />
        <mxCell id="Initial" value="" style="ellipse;perimeter=ellipsePerimeter;html=1;fillColor=#000000;strokeColor=#000000;" parent="1" vertex="1">
          <mxGeometry x="40" y="100" width="20" height="20" as="geometry" />
        </mxCell>
        <mxCell id="Solicitada" value="Solicitada" style="umlState;whiteSpace=wrap;html=1;fillColor=#DAE8FC;strokeColor=#6C8EBF;" parent="1" vertex="1">
          <mxGeometry x="100" y="80" width="120" height="60" as="geometry" />
        </mxCell>
        <mxCell id="Confirmada" value="Confirmada" style="umlState;whiteSpace=wrap;html=1;fillColor=#D5E8D4;strokeColor=#82B366;" parent="1" vertex="1">
          <mxGeometry x="260" y="120" width="120" height="60" as="geometry" />
        </mxCell>
        <mxCell id="EnCurso" value="En curso" style="umlState;whiteSpace=wrap;html=1;fillColor=#FFF2CC;strokeColor=#D6B656;" parent="1" vertex="1">
          <mxGeometry x="260" y="240" width="120" height="60" as="geometry" />
        </mxCell>
        <mxCell id="Completada" value="Completada" style="umlState;whiteSpace=wrap;html=1;fillColor=#F8CECC;strokeColor=#B85450;" parent="1" vertex="1">
          <mxGeometry x="260" y="440" width="120" height="60" as="geometry" />
        </mxCell>
        <mxCell id="Cancelada" value="Cancelada" style="umlState;whiteSpace=wrap;html=1;fillColor=#E1D5E7;strokeColor=#9673A6;" parent="1" vertex="1">
          <mxGeometry x="590" y="120" width="120" height="60" as="geometry" />
        </mxCell>
        <mxCell id="Final" value="" style="shape=doubleEllipse;html=1;strokeColor=#000000;" parent="1" vertex="1">
          <mxGeometry x="640" y="370" width="20" height="20" as="geometry" />
        </mxCell>
        <mxCell id="t1" style="edgeStyle=orthogonalEdgeStyle;endArrow=block;html=1;" parent="1" source="Initial" target="Solicitada" edge="1">
          <mxGeometry relative="1" as="geometry" />
        </mxCell>
        <mxCell id="t2" value="confirmar" style="edgeStyle=orthogonalEdgeStyle;endArrow=block;html=1;" parent="1" source="Solicitada" target="Confirmada" edge="1">
          <mxGeometry relative="1" as="geometry">
            <Array as="points">
              <mxPoint x="280" y="110" />
              <mxPoint x="280" y="110" />
            </Array>
          </mxGeometry>
        </mxCell>
        <mxCell id="t3" value="cancelar" style="edgeStyle=orthogonalEdgeStyle;endArrow=block;html=1;" parent="1" source="Solicitada" target="Cancelada" edge="1">
          <mxGeometry relative="1" as="geometry">
            <Array as="points">
              <mxPoint x="160" y="50" />
              <mxPoint x="650" y="50" />
            </Array>
          </mxGeometry>
        </mxCell>
        <mxCell id="t4" value="iniciar" style="edgeStyle=orthogonalEdgeStyle;endArrow=block;html=1;" parent="1" source="Confirmada" target="EnCurso" edge="1">
          <mxGeometry relative="1" as="geometry" />
        </mxCell>
        <mxCell id="t5" value="completar" style="edgeStyle=orthogonalEdgeStyle;endArrow=block;html=1;" parent="1" source="EnCurso" target="Completada" edge="1">
          <mxGeometry relative="1" as="geometry" />
        </mxCell>
        <mxCell id="t6" value="cancelar" style="edgeStyle=orthogonalEdgeStyle;endArrow=block;html=1;" parent="1" source="Confirmada" target="Cancelada" edge="1">
          <mxGeometry relative="1" as="geometry" />
        </mxCell>
        <mxCell id="t7" style="edgeStyle=orthogonalEdgeStyle;endArrow=block;html=1;" parent="1" source="Completada" target="Final" edge="1">
          <mxGeometry relative="1" as="geometry" />
        </mxCell>
        <mxCell id="t8" style="edgeStyle=orthogonalEdgeStyle;endArrow=block;html=1;" parent="1" source="Cancelada" target="Final" edge="1">
          <mxGeometry relative="1" as="geometry" />
        </mxCell>
      </root>
    </mxGraphModel>
  </diagram>
</mxfile>
